<svg xmlns="http://www.w3.org/2000/svg" width="120" height="247.805" viewBox="0 0 120 247.805">
  <title>Bishop</title>
  <path d="M119.923,194.3c0-.049.006-.1.006-.148a16.1,16.1,0,0,0-.088-1.646c-.018-.176-.054-.349-.078-.524-.051-.369-.1-.738-.178-1.1-.042-.2-.1-.4-.149-.6-.083-.337-.166-.673-.27-1.006-.064-.205-.141-.408-.213-.611-.116-.326-.234-.651-.369-.974-.083-.2-.176-.4-.268-.593-.149-.325-.3-.649-.474-.969-.1-.188-.2-.374-.31-.56-.188-.329-.384-.657-.592-.981q-.165-.257-.338-.512-.347-.508-.726-1.009c-.114-.149-.227-.3-.346-.448-.282-.356-.58-.708-.888-1.057-.106-.121-.21-.243-.32-.363-.352-.386-.721-.766-1.1-1.142-.081-.08-.158-.161-.24-.24q-.681-.658-1.422-1.3l-.051-.045a49.575,49.575,0,0,0-11.885-7.324,17.382,17.382,0,0,0-1.855-2.428c-.031-.035-.061-.07-.093-.1-.2-.215-.405-.427-.616-.638-.072-.072-.144-.145-.218-.218q-.3-.292-.622-.581c-.093-.084-.187-.168-.282-.251-.211-.185-.426-.368-.647-.548-.1-.086-.213-.171-.32-.256-.224-.178-.451-.355-.685-.53-.106-.078-.216-.155-.323-.232-.248-.179-.5-.358-.754-.533l-.024-.016c-.572-.387-1.174-.761-1.8-1.126-.144-.084-.284-.17-.43-.254-.235-.133-.477-.263-.717-.393-.189-.1-.377-.2-.57-.306-.232-.121-.469-.239-.707-.357-.213-.106-.426-.211-.643-.314q-.352-.168-.712-.331t-.7-.309c-.238-.1-.476-.207-.718-.308s-.507-.205-.763-.306c-.236-.094-.47-.188-.71-.279-.293-.111-.593-.218-.892-.325-.212-.076-.42-.154-.635-.228h0l-.511-5.014-3.487-34.207h0c.224-.2.436-.411.654-.618s.427-.4.634-.613.427-.445.636-.671c.2-.211.39-.423.58-.64s.4-.462.595-.7.372-.464.554-.7.363-.465.537-.7c.211-.289.41-.585.61-.881q.332-.489.644-.991c.211-.341.421-.682.619-1.031.131-.23.253-.466.378-.7.16-.3.318-.6.469-.907.118-.241.232-.483.344-.727q.219-.475.421-.959c.1-.235.2-.47.292-.708.147-.375.282-.755.415-1.137.066-.189.138-.376.2-.567q.276-.847.506-1.715c.044-.167.079-.337.121-.506.106-.43.207-.862.3-1.3.044-.22.083-.442.123-.663q.107-.6.193-1.2c.032-.228.062-.455.09-.684.05-.423.089-.848.123-1.275.015-.2.035-.4.047-.6.037-.626.06-1.254.06-1.886h0a68.164,68.164,0,0,0-3.7-22.151l-10.9-6.273,4.749-6.966L65.137,36.309a5.483,5.483,0,0,0-9.711-.012L39.756,64.519a67.765,67.765,0,0,0-8.444,33.862V98.4c.009.607.04,1.211.084,1.812.013.191.034.382.051.573.037.411.08.82.133,1.227.028.22.059.438.092.656.058.389.125.774.2,1.158.04.21.076.421.12.629.1.473.211.94.331,1.405.054.209.11.416.168.623.123.436.251.87.392,1.3.082.25.172.5.26.745.105.293.211.586.324.875q.159.408.329.811c.107.253.22.5.333.755.129.282.256.565.392.843.1.206.21.407.315.61q.477.918,1.011,1.8c.076.125.148.254.226.378.2.318.41.629.62.939.1.149.2.3.307.446q.327.465.673.916c.1.127.2.252.3.377.25.317.5.631.764.937.023.027.048.052.071.079q.96,1.113,2.026,2.127l0,0L36.8,159.968h0c-.222.077-.437.158-.657.237-.291.1-.584.208-.87.316-.242.092-.478.187-.716.282-.254.1-.508.2-.757.3s-.483.205-.723.309-.464.2-.693.307-.481.221-.717.334c-.214.1-.426.206-.636.31-.24.119-.478.238-.712.36-.192.1-.38.2-.568.305-.241.13-.483.26-.718.393-.143.081-.279.166-.419.248-.611.359-1.2.726-1.766,1.106-.021.014-.044.027-.065.042-.257.174-.5.353-.752.532-.107.077-.218.154-.323.233-.235.174-.462.352-.687.53-.107.085-.214.169-.319.255-.222.181-.437.364-.648.549-.1.083-.188.166-.28.25q-.321.288-.624.582c-.074.072-.144.144-.216.216-.212.212-.42.424-.618.64-.03.032-.058.065-.087.1a17.475,17.475,0,0,0-1.86,2.432h0a49.588,49.588,0,0,0-11.889,7.326l-.044.039q-.745.642-1.43,1.3c-.081.078-.158.159-.238.238-.382.377-.752.758-1.1,1.144-.11.12-.213.241-.32.361-.308.35-.607.7-.89,1.06-.118.148-.23.3-.343.446q-.381.5-.728,1.011c-.116.169-.228.339-.338.51q-.312.487-.592.983c-.106.186-.211.371-.31.558-.17.321-.325.645-.475.97-.091.2-.184.394-.267.593-.136.323-.254.649-.369.976-.072.2-.149.4-.213.609-.1.333-.188.67-.271,1.007-.049.2-.107.4-.149.6-.076.366-.127.736-.178,1.106-.024.174-.059.346-.077.521a15.853,15.853,0,0,0-.088,1.647c0,.448.023.893.062,1.336L0,217c-.037,16.942,26.767,30.736,59.868,30.809s59.967-13.6,60-30.545L120,194.147S119.969,194.208,119.923,194.3Z"/>
</svg>
