<svg xmlns="http://www.w3.org/2000/svg" width="606.496" height="183.935" viewBox="0 0 606.496 183.935">
  <title>ChessTitle</title>
  <g>
    <g>
      <path d="M75.782,29.836c25.544,0,42.009,9.922,49.4,15.41,3.378,2.533,3.588,5.911,1.267,9.71L123.7,59.178c-2.534,3.8-5.7,4.222-9.711,1.689-6.333-4.222-19.42-11.822-37.363-11.822-34.621,0-55.1,25.333-55.1,56.785,0,31.666,20.9,58.9,55.306,58.9,19.632,0,33.987-9.5,40.53-14.566,3.59-2.744,6.967-2.744,9.711.846l3.167,4.221c2.532,3.378,2.322,6.755-1.056,9.71a82.509,82.509,0,0,1-52.985,19c-46.018,0-76.2-34.2-76.2-77.893C0,62.767,31.243,29.836,75.782,29.836Z" fill="#a100ba"/>
      <path d="M150.975,39.335q0-6.966,6.966-6.966H164.7q6.966,0,6.967,6.966V98.02h77.472V39.335c0-4.644,2.533-6.966,6.965-6.966h6.967c4.433,0,6.755,2.322,6.755,6.966v135.1c0,4.644-2.322,6.967-6.755,6.967H256.1c-4.432,0-6.965-2.323-6.965-6.967V115.964H171.663v58.472q0,6.966-6.967,6.967h-6.755q-6.965,0-6.966-6.967Z" fill="#a100ba"/>
      <path d="M296.15,39.335q0-6.966,6.967-6.966h72.617q6.966,0,6.966,6.966v4.222c0,4.433-2.322,6.966-6.966,6.966h-58.9V97.176h46.653c4.432,0,6.965,2.322,6.965,6.966v4.222c0,4.644-2.533,6.965-6.965,6.965H316.838v47.92h62.484q6.966,0,6.967,6.966v4.221q0,6.966-6.967,6.967h-76.2q-6.966,0-6.967-6.967Z" fill="#a100ba"/>
      <path d="M404.242,158.815l3.588-5.065c2.534-3.378,5.489-3.8,9.5-1.267,5.277,3.8,16.676,12.033,32.508,12.033s26.176-8.445,26.176-21.321c0-32.931-71.772-25.543-71.772-71.984,0-25.121,21.109-41.375,48.34-41.375,17.733,0,31.664,6.966,37.364,11.4,3.589,2.533,4.011,5.7,2.111,9.5L489.1,56.012c-2.533,4.433-5.911,4.011-9.5,1.9-5.7-3.378-14.778-8.655-27.442-8.655-15.41,0-26.81,8.021-26.81,20.9,0,32.087,71.773,23.432,71.773,71.35,0,23.432-17.521,42.43-47.286,42.43a73.9,73.9,0,0,1-44.752-15.409C402.342,165.993,401.075,163.038,404.242,158.815Z" fill="#a100ba"/>
      <path d="M513.614,158.815l3.588-5.065c2.534-3.378,5.49-3.8,9.5-1.267,5.276,3.8,16.675,12.033,32.508,12.033s26.176-8.445,26.176-21.321c0-32.931-71.773-25.543-71.773-71.984,0-25.121,21.109-41.375,48.341-41.375,17.732,0,31.664,6.966,37.363,11.4,3.59,2.533,4.011,5.7,2.111,9.5l-2.955,5.277c-2.533,4.433-5.911,4.011-9.5,1.9-5.7-3.378-14.777-8.655-27.442-8.655-15.409,0-26.81,8.021-26.81,20.9,0,32.087,71.773,23.432,71.773,71.35,0,23.432-17.521,42.43-47.285,42.43a73.9,73.9,0,0,1-44.753-15.409C511.714,165.993,510.447,163.038,513.614,158.815Z" fill="#a100ba"/>
    </g>
    <g>
      <path d="M75.782,15.672c25.544,0,42.009,9.922,49.4,15.41,3.378,2.534,3.588,5.911,1.267,9.711L123.7,45.014c-2.534,3.8-5.7,4.223-9.711,1.69-6.333-4.222-19.42-11.822-37.363-11.822-34.621,0-55.1,25.332-55.1,56.785,0,31.665,20.9,58.9,55.306,58.9,19.632,0,33.987-9.5,40.53-14.565,3.59-2.744,6.967-2.744,9.711.845l3.167,4.221c2.532,3.379,2.322,6.755-1.056,9.711a82.515,82.515,0,0,1-52.985,19c-46.018,0-76.2-34.2-76.2-77.894C0,48.6,31.243,15.672,75.782,15.672Z" fill="#57009e"/>
      <path d="M150.975,25.171q0-6.965,6.966-6.965H164.7q6.966,0,6.967,6.965V83.856h77.472V25.171c0-4.643,2.533-6.965,6.965-6.965h6.967c4.433,0,6.755,2.322,6.755,6.965v135.1c0,4.644-2.322,6.966-6.755,6.966H256.1c-4.432,0-6.965-2.322-6.965-6.966V101.8H171.663v58.473q0,6.966-6.967,6.966h-6.755q-6.965,0-6.966-6.966Z" fill="#57009e"/>
      <path d="M296.15,25.171q0-6.965,6.967-6.965h72.617q6.966,0,6.966,6.965v4.223c0,4.432-2.322,6.966-6.966,6.966h-58.9V83.012h46.653c4.432,0,6.965,2.323,6.965,6.966V94.2c0,4.644-2.533,6.965-6.965,6.965H316.838v47.919h62.484q6.966,0,6.967,6.967v4.221q0,6.966-6.967,6.966h-76.2q-6.966,0-6.967-6.966Z" fill="#57009e"/>
      <path d="M404.242,144.652l3.588-5.066c2.534-3.378,5.489-3.8,9.5-1.267,5.277,3.8,16.676,12.033,32.508,12.033s26.176-8.444,26.176-21.32c0-32.931-71.772-25.543-71.772-71.985,0-25.121,21.109-41.375,48.34-41.375,17.733,0,31.664,6.967,37.364,11.4,3.589,2.534,4.011,5.7,2.111,9.5L489.1,41.848c-2.533,4.433-5.911,4.011-9.5,1.9-5.7-3.377-14.778-8.655-27.442-8.655-15.41,0-26.81,8.022-26.81,20.9,0,32.087,71.773,23.432,71.773,71.35,0,23.432-17.521,42.43-47.286,42.43a73.9,73.9,0,0,1-44.752-15.41C402.342,151.829,401.075,148.874,404.242,144.652Z" fill="#57009e"/>
      <path d="M513.614,144.652l3.588-5.066c2.534-3.378,5.49-3.8,9.5-1.267,5.276,3.8,16.675,12.033,32.508,12.033s26.176-8.444,26.176-21.32c0-32.931-71.773-25.543-71.773-71.985,0-25.121,21.109-41.375,48.341-41.375,17.732,0,31.664,6.967,37.363,11.4,3.59,2.534,4.011,5.7,2.111,9.5l-2.955,5.277c-2.533,4.433-5.911,4.011-9.5,1.9-5.7-3.377-14.777-8.655-27.442-8.655-15.409,0-26.81,8.022-26.81,20.9,0,32.087,71.773,23.432,71.773,71.35,0,23.432-17.521,42.43-47.285,42.43a73.9,73.9,0,0,1-44.753-15.41C511.714,151.829,510.447,148.874,513.614,144.652Z" fill="#57009e"/>
    </g>
    <g>
      <path d="M75.782,0c25.544,0,42.009,9.922,49.4,15.41,3.378,2.533,3.588,5.911,1.267,9.71L123.7,29.342c-2.534,3.8-5.7,4.222-9.711,1.689-6.333-4.222-19.42-11.821-37.363-11.821-34.621,0-55.1,25.332-55.1,56.785,0,31.665,20.9,58.895,55.306,58.895,19.632,0,33.987-9.5,40.53-14.566,3.59-2.744,6.967-2.744,9.711.846l3.167,4.221c2.532,3.378,2.322,6.755-1.056,9.71a82.508,82.508,0,0,1-52.985,19C30.187,154.1,0,119.9,0,76.206,0,32.931,31.243,0,75.782,0Z" fill="#fff"/>
      <path d="M150.975,9.5q0-6.966,6.966-6.966H164.7q6.966,0,6.967,6.966V68.184h77.472V9.5c0-4.644,2.533-6.966,6.965-6.966h6.967c4.433,0,6.755,2.322,6.755,6.966V144.6c0,4.643-2.322,6.966-6.755,6.966H256.1c-4.432,0-6.965-2.323-6.965-6.966V86.128H171.663V144.6q0,6.964-6.967,6.966h-6.755q-6.965,0-6.966-6.966Z" fill="#fff"/>
      <path d="M296.15,9.5q0-6.966,6.967-6.966h72.617q6.966,0,6.966,6.966v4.222c0,4.433-2.322,6.966-6.966,6.966h-58.9V67.34h46.653c4.432,0,6.965,2.322,6.965,6.966v4.223c0,4.643-2.533,6.965-6.965,6.965H316.838v47.919h62.484q6.966,0,6.967,6.967V144.6q0,6.964-6.967,6.966h-76.2q-6.966,0-6.967-6.966Z" fill="#fff"/>
      <path d="M404.242,128.979l3.588-5.065c2.534-3.378,5.489-3.8,9.5-1.267,5.277,3.8,16.676,12.033,32.508,12.033s26.176-8.445,26.176-21.321c0-32.931-71.772-25.543-71.772-71.984C404.242,16.254,425.351,0,452.582,0c17.733,0,31.664,6.966,37.364,11.4,3.589,2.533,4.011,5.7,2.111,9.5L489.1,26.176c-2.533,4.433-5.911,4.011-9.5,1.9-5.7-3.378-14.778-8.655-27.442-8.655-15.41,0-26.81,8.021-26.81,20.9,0,32.086,71.773,23.431,71.773,71.35,0,23.431-17.521,42.43-47.286,42.43a73.9,73.9,0,0,1-44.752-15.41C402.342,136.157,401.075,133.2,404.242,128.979Z" fill="#fff"/>
      <path d="M513.614,128.979l3.588-5.065c2.534-3.378,5.49-3.8,9.5-1.267,5.276,3.8,16.675,12.033,32.508,12.033s26.176-8.445,26.176-21.321c0-32.931-71.773-25.543-71.773-71.984C513.614,16.254,534.723,0,561.955,0c17.732,0,31.664,6.966,37.363,11.4,3.59,2.533,4.011,5.7,2.111,9.5l-2.955,5.277c-2.533,4.433-5.911,4.011-9.5,1.9-5.7-3.378-14.777-8.655-27.442-8.655-15.409,0-26.81,8.021-26.81,20.9,0,32.086,71.773,23.431,71.773,71.35,0,23.431-17.521,42.43-47.285,42.43a73.9,73.9,0,0,1-44.753-15.41C511.714,136.157,510.447,133.2,513.614,128.979Z" fill="#fff"/>
    </g>
  </g>
</svg>
