<svg xmlns="http://www.w3.org/2000/svg" width="120" height="249" viewBox="0 0 120 249">
  <title>King</title>
  <path d="M119.863,203.63l-.039-7.014c.034-.423.063-.847.063-1.274,0-.044,0-.088-.007-.132s0-.088-.006-.132h0l0-.042c-.007-.334-.023-.668-.05-1-.021-.261-.054-.52-.088-.779-.023-.172-.048-.343-.076-.513-.071-.431-.161-.859-.265-1.285-.041-.165-.077-.33-.123-.494-.071-.256-.153-.509-.236-.762-.054-.165-.113-.33-.172-.494q-.226-.625-.5-1.241c-.072-.161-.141-.323-.218-.483-.118-.246-.244-.49-.374-.733-.086-.162-.177-.323-.268-.484q-.333-.586-.71-1.164c-.108-.164-.214-.329-.326-.493-.16-.232-.327-.462-.5-.691-.121-.163-.247-.324-.374-.486q-.426-.544-.891-1.078c-.144-.166-.287-.332-.437-.5q-.3-.324-.607-.644c-.159-.164-.325-.327-.489-.49q-.508-.5-1.05-.99c-.179-.162-.36-.325-.545-.486q-.347-.3-.7-.595c-.2-.169-.417-.335-.629-.5q-.569-.45-1.168-.888c-.215-.157-.431-.314-.651-.469-.261-.183-.524-.365-.793-.546s-.528-.347-.8-.519c-.408-.262-.822-.519-1.246-.774-.247-.149-.5-.3-.749-.443-.289-.167-.578-.333-.873-.5-.34-.189-.687-.374-1.036-.558q-.612-.321-1.241-.634-.414-.206-.833-.407c-.314-.15-.628-.3-.948-.446q-.743-.341-1.508-.67c-.323-.138-.652-.272-.98-.407-.306-.125-.613-.249-.924-.371-.336-.133-.671-.266-1.013-.4q-.806-.3-1.63-.594c-.351-.123-.707-.242-1.063-.362q-.492-.165-.99-.325c-.357-.115-.713-.231-1.075-.342h0l-1-5.842L77.56,92.005,94.285,63.936l.546-.915a12.971,12.971,0,0,0,1.44-2.417h0a10.579,10.579,0,0,0,.394-.994l.011-.029c.1-.311.194-.624.267-.939.009-.038.02-.075.028-.112.064-.289.113-.58.15-.872.008-.059.02-.117.027-.176a9.593,9.593,0,0,0,.059-1.033,9.459,9.459,0,0,0-.084-1.192c-.014-.111-.032-.222-.05-.332Q97,54.457,96.878,54c-.024-.09-.042-.18-.068-.269a10.912,10.912,0,0,0-.4-1.141c-.031-.073-.068-.146-.1-.219-.138-.312-.293-.62-.462-.926-.054-.1-.108-.2-.165-.292-.208-.355-.432-.706-.681-1.052l-.023-.034c-.265-.366-.558-.725-.867-1.081-.065-.075-.134-.148-.2-.223q-.4-.446-.848-.879c-.06-.059-.118-.118-.179-.176-.368-.347-.754-.689-1.164-1.024l-.045-.035c-.392-.318-.805-.628-1.233-.933-.073-.053-.146-.1-.221-.156a30.218,30.218,0,0,0-2.984-1.829c-.043-.024-.088-.047-.132-.07q-.771-.411-1.589-.8l-.124-.059q-1.761-.825-3.726-1.533l-.144-.051q-1.992-.709-4.165-1.289h0a23.517,23.517,0,0,0,2.555-3.382l.066-.107a23.522,23.522,0,0,0,1.849-3.695c.032-.081.061-.163.092-.244q.319-.839.576-1.7c.028-.095.059-.188.086-.284.18-.637.336-1.282.462-1.937.019-.1.031-.2.049-.3q.147-.82.235-1.657c.019-.172.037-.343.051-.515.056-.655.093-1.312.093-1.976l-11.76-6.8V3.978l-.084-.048A23.393,23.393,0,0,0,65.971,1.6q-.732-.2-1.474-.343a23.433,23.433,0,0,0-16.128,2.6h0L36.626,10.569A23.576,23.576,0,0,0,48.418,30.993l0,0,.052,7.7q-2.062.338-4.013.79l-.087.019q-.594.139-1.177.288l-.213.055q-.579.15-1.146.308l-.082.024q-1.791.507-3.454,1.109l-.165.059c-.322.118-.639.239-.954.361l-.3.118c-.3.121-.605.244-.9.369l-.251.109q-1.4.608-2.676,1.279c-.108.058-.218.114-.325.172-.229.123-.452.249-.674.376q-.2.114-.4.23c-.208.123-.414.246-.616.372-.137.085-.27.171-.4.258-.193.124-.386.247-.573.374-.15.1-.292.206-.438.309q-.43.306-.838.62c-.151.117-.3.233-.448.351s-.276.23-.412.346-.286.245-.424.37-.251.227-.373.342c-.146.138-.286.277-.424.416-.1.105-.211.209-.312.315-.224.236-.44.475-.645.716-.062.073-.117.148-.177.221-.15.184-.3.369-.437.556-.075.1-.145.2-.217.306-.116.165-.229.331-.336.5-.067.1-.132.208-.2.313-.107.178-.208.358-.3.539-.049.092-.1.183-.148.275-.136.271-.263.543-.375.817-.013.031-.022.063-.035.094-.1.248-.187.5-.266.75-.03.092-.054.185-.08.278-.055.2-.106.391-.149.589-.022.1-.043.2-.062.3-.037.2-.067.4-.092.607-.011.091-.024.181-.033.272-.027.292-.044.586-.044.881v.009a9.427,9.427,0,0,0,.059,1.024c.007.06.019.119.027.179.037.291.086.581.149.869.009.037.02.075.029.112q.11.473.266.938l.012.032c.113.333.245.663.393.991h-.007l.032.054h0a12.9,12.9,0,0,0,1.386,2.325L42.468,92.035h.015l.011.015-2.541,14.81-10.66,62.147c-.365.112-.723.229-1.083.345q-.5.159-.988.324c-.357.12-.715.24-1.067.364q-.831.293-1.643.6c-.337.127-.666.258-1,.388s-.637.254-.952.383-.644.264-.96.4q-.785.336-1.546.686c-.3.137-.589.277-.881.416q-.472.226-.936.457c-.277.139-.556.276-.828.417q-.738.382-1.448.779c-.253.14-.5.283-.746.426q-.474.273-.935.553c-.226.136-.453.271-.674.41q-.687.43-1.343.876c-.206.139-.407.28-.608.421q-.471.33-.925.666c-.171.127-.346.253-.514.381-.42.321-.826.647-1.222.977-.162.134-.318.269-.476.405q-.456.393-.889.792c-.121.112-.247.223-.366.336-.372.354-.728.713-1.074,1.075-.122.127-.24.256-.358.384q-.423.459-.817.927c-.078.091-.16.182-.235.274-.316.385-.613.775-.9,1.168-.088.121-.173.242-.258.364q-.368.525-.7,1.06c-.043.069-.089.137-.131.206-.25.413-.478.831-.694,1.252-.059.115-.116.231-.173.348-.192.392-.372.787-.534,1.185-.018.046-.04.091-.058.137-.174.437-.324.878-.461,1.321-.035.114-.068.227-.1.341-.124.432-.235.866-.323,1.3,0,.022-.011.043-.015.064-.09.457-.154.917-.2,1.379-.013.114-.024.227-.034.34-.041.467-.069.935-.069,1.406,0,.032,0,.063,0,.094s0,.038,0,.057c-.043-.081-.07-.135-.075-.144l0-.007h0l.01,1.806-.005.009,0,.012.01.008.118,21.278A16.054,16.054,0,0,0,.5,221.591a18.416,18.416,0,0,0,2.4,5.98,26.555,26.555,0,0,0,4.547,5.49,38.532,38.532,0,0,0,4.677,3.722,53.992,53.992,0,0,0,7.731,4.336q1.065.494,2.175.96a88.031,88.031,0,0,0,20.3,5.581A113.54,113.54,0,0,0,60.132,249c15.5-.034,29.62-3.084,40.244-8.058a44.624,44.624,0,0,0,13.692-9.439,26.456,26.456,0,0,0,2.265-2.757,18.017,18.017,0,0,0,3.61-10.555Z"/>
</svg>
