<svg xmlns="http://www.w3.org/2000/svg" width="120" height="248.543" viewBox="0 0 120 248.543">
  <title>Knight-White</title>
  <path d="M119.825,196.3h0q.058-.659.06-1.323l0-.025v-.01c0-.044,0-.088-.007-.132s0-.088-.006-.132h0a15.685,15.685,0,0,0-.122-1.695c-.008-.068-.021-.136-.03-.2q-.1-.741-.269-1.473c-.022-.094-.046-.188-.07-.282q-.174-.7-.407-1.383c-.034-.1-.068-.2-.1-.3q-.248-.685-.555-1.36c-.04-.089-.078-.178-.12-.267q-.336-.711-.736-1.408c-.033-.058-.063-.117-.1-.175a26.51,26.51,0,0,0-4.962-6.028c-.09-.084-.187-.165-.279-.249-.416-.376-.845-.748-1.292-1.114-.136-.112-.277-.222-.416-.333-.42-.334-.85-.664-1.294-.99q-.246-.18-.5-.357-.663-.471-1.358-.927c-.177-.117-.353-.233-.534-.348-.48-.307-.975-.608-1.478-.905-.174-.1-.344-.206-.52-.307-.559-.321-1.133-.634-1.717-.943-.129-.068-.254-.139-.385-.207q-2.216-1.149-4.656-2.176h0V120.092a37.4,37.4,0,0,0,19.687-32.948V77.452S94.077,83.185,80.759,58.441h0a44.521,44.521,0,0,0-44.259.066l-14.3,8.215A166.971,166.971,0,0,0,.06,149l0,.715,22.148,12.642.052-.03v8.919h0q-2.451,1.029-4.674,2.185c-.156.081-.306.166-.461.248-.559.3-1.11.6-1.646.906-.2.115-.393.232-.589.349q-.719.425-1.407.863c-.208.132-.412.266-.615.4q-.651.429-1.271.872c-.2.14-.395.28-.588.423-.409.3-.8.608-1.193.918-.174.139-.352.277-.523.417-.406.336-.795.678-1.176,1.022-.131.118-.269.235-.4.354-.488.455-.957.915-1.4,1.384l-.031.031q-.692.732-1.307,1.486c-.088.107-.165.218-.25.326-.3.384-.6.771-.876,1.164-.121.172-.23.348-.345.522-.22.334-.436.668-.634,1.007-.116.2-.223.4-.331.6-.175.322-.342.645-.5.971-.1.211-.195.422-.286.635-.139.322-.266.647-.384.974-.079.215-.156.43-.226.647-.107.335-.2.673-.284,1.011-.053.211-.111.42-.156.631-.079.371-.135.745-.188,1.12-.025.181-.061.361-.081.544a15.987,15.987,0,0,0-.093,1.684c0,.05.005.1.006.149-.046-.088-.077-.149-.077-.149L.4,218.013c.037,16.911,26.827,30.561,59.837,30.488a113.187,113.187,0,0,0,17.771-1.415q2.807-.455,5.489-1.042a73.119,73.119,0,0,0,22.837-8.787,38.472,38.472,0,0,0,7.741-6.22,23.968,23.968,0,0,0,4-5.631,16.929,16.929,0,0,0,1.864-7.657Z"/>
</svg>
