<svg xmlns="http://www.w3.org/2000/svg" width="120" height="248.091" viewBox="0 0 120 248.091">
  <title>Pawn</title>
  <path d="M119.9,123.348h0l0-.03c-.006-.05-.017-.1-.024-.149-.064-.533-.157-1.062-.274-1.587,0-.016-.005-.032-.008-.048h0C116.142,106.248,90.788,94.376,60,94.376S3.858,106.248.416,121.534h0c0,.016-.005.032-.008.048-.117.526-.21,1.054-.274,1.587-.007.05-.018.1-.024.149l0,.03h0a15,15,0,0,0-.1,1.738v92.3c0,16.961,26.863,30.71,60,30.71s60-13.749,60-30.71V125.086A15,15,0,0,0,119.9,123.348Z"/>
</svg>
