<svg xmlns="http://www.w3.org/2000/svg" width="120" height="249.093" viewBox="0 0 120 249.093">
  <title>Queen</title>
  <path d="M119.737,197.49l-.01-.021.01-1.8s-.03.059-.074.142l0,0c0-.017,0-.033,0-.049,0-.033,0-.065,0-.1v0c0-.467-.028-.931-.069-1.393-.01-.11-.02-.221-.032-.331-.049-.454-.113-.907-.2-1.356-.011-.056-.026-.111-.038-.166-.084-.405-.185-.808-.3-1.208-.031-.11-.061-.22-.095-.329-.133-.432-.281-.861-.448-1.286-.038-.094-.08-.187-.119-.281q-.221-.534-.478-1.061c-.055-.112-.107-.225-.164-.337q-.31-.606-.667-1.2c-.073-.123-.152-.245-.228-.367q-.294-.468-.616-.931c-.083-.118-.161-.237-.246-.355-.268-.37-.552-.736-.847-1.1-.121-.148-.246-.3-.37-.442q-.341-.4-.7-.793c-.158-.173-.316-.344-.48-.515q-.418-.435-.864-.863c-.175-.17-.355-.337-.537-.5-.237-.218-.482-.434-.73-.65q-.44-.381-.9-.755c-.227-.185-.455-.369-.689-.551s-.482-.37-.728-.553c-.217-.161-.44-.319-.663-.477q-.642-.456-1.314-.9c-.187-.123-.374-.246-.564-.367-.308-.2-.619-.393-.937-.587-.1-.059-.2-.116-.3-.174q-.957-.575-1.97-1.122l-.441-.237q-1.758-.933-3.667-1.788l-.332-.147q-1.976-.871-4.095-1.655l-.231-.084q-1.437-.525-2.933-1.007l-9.82-53.362L77.212,91.194,89.966,73.047l0,0a25.425,25.425,0,0,0,6.455-5.187c.033-.038.068-.076.1-.114.179-.21.347-.424.512-.639.064-.083.13-.166.193-.25.141-.192.275-.386.405-.581.075-.11.149-.22.22-.332.114-.179.221-.36.326-.542.075-.13.147-.261.218-.392.09-.171.177-.342.259-.514q.1-.221.2-.441c.07-.163.139-.326.2-.49s.117-.327.171-.491.1-.307.147-.462c.051-.181.093-.363.135-.545.033-.142.07-.284.1-.427.04-.211.067-.423.095-.636.015-.117.036-.234.047-.352.031-.327.049-.657.049-.989v-13.9h0c0-.275-.019-.548-.041-.82l.041-.03-.047-.094c-.018-.206-.05-.41-.081-.614-.016-.114-.03-.229-.05-.342-.035-.194-.08-.386-.126-.578-.029-.122-.057-.244-.09-.365q-.078-.283-.171-.564c-.04-.12-.082-.24-.125-.36-.069-.188-.14-.375-.219-.561-.047-.113-.1-.224-.151-.335-.088-.192-.175-.384-.273-.573-.043-.083-.092-.164-.137-.247a15.194,15.194,0,0,0-1.319-2.008c-.069-.088-.133-.176-.2-.264-.147-.183-.3-.363-.46-.544-.084-.1-.167-.192-.254-.287-.161-.178-.328-.353-.5-.528-.091-.092-.183-.184-.276-.275-.18-.177-.362-.353-.552-.527-.086-.079-.176-.157-.264-.235-.207-.184-.415-.368-.634-.549-.035-.029-.074-.058-.11-.087A28.184,28.184,0,0,0,91.172,33.1c-.068-.044-.133-.088-.2-.131-.272-.173-.552-.341-.834-.509l-.284-.168q-.424-.246-.865-.485l-.286-.154c-.307-.163-.617-.325-.934-.483l-.206-.1a46.2,46.2,0,0,0-4.891-2.051l-.015-.006q-.621-.219-1.258-.427l-.175-.057q-.622-.2-1.259-.391l-.179-.053c-.441-.129-.885-.255-1.336-.376l-.031-.008a65.823,65.823,0,0,0-7.63-1.55l-.116-.017q-.758-.108-1.527-.2L69,25.914c-.523-.062-1.049-.12-1.58-.171a8.431,8.431,0,0,0-.535-.846c-.055-.077-.112-.151-.169-.225-.157-.207-.323-.405-.5-.6-.056-.061-.109-.124-.166-.183a8.434,8.434,0,0,0-.73-.672c-.047-.038-.1-.071-.146-.108a8.2,8.2,0,0,0-.676-.475c-.083-.053-.166-.1-.251-.153-.24-.139-.486-.268-.74-.384-.056-.025-.109-.055-.165-.079a8.309,8.309,0,0,0-.95-.341c-.083-.025-.168-.043-.253-.065q-.384-.1-.781-.165c-.1-.016-.2-.032-.295-.045a7.689,7.689,0,0,0-2.114,0c-.1.013-.2.029-.3.045q-.4.064-.782.165c-.083.022-.168.04-.251.065a8.39,8.39,0,0,0-.951.34c-.056.025-.108.054-.164.079q-.381.175-.741.385c-.084.049-.167.1-.249.152a8.2,8.2,0,0,0-.677.474c-.048.038-.1.071-.146.11a8.278,8.278,0,0,0-.73.671c-.057.058-.109.12-.165.18q-.262.288-.5.6c-.057.074-.113.147-.167.224a8.43,8.43,0,0,0-.534.842l0,0h0q-.8.078-1.59.171l-.128.016q-.779.093-1.546.2l-.085.012a65.591,65.591,0,0,0-7.655,1.552l-.031.008c-.455.121-.9.248-1.347.379l-.164.048q-.645.192-1.274.395l-.156.051a47.478,47.478,0,0,0-6.187,2.491l-.2.1q-.48.238-.944.487l-.274.147q-.447.243-.877.493c-.091.052-.179.105-.268.158-.288.17-.572.342-.849.517l-.18.117a28.38,28.38,0,0,0-2.6,1.882c-.038.03-.077.06-.114.091-.22.182-.43.366-.638.552-.087.077-.175.153-.26.231-.191.175-.375.352-.557.531-.091.09-.182.18-.27.27q-.259.264-.5.532c-.085.094-.167.188-.249.283-.159.182-.317.364-.465.549-.069.084-.132.17-.2.256a15.147,15.147,0,0,0-1.325,2.015c-.045.082-.094.164-.136.246-.1.19-.186.382-.274.574-.051.111-.1.222-.151.335-.079.186-.15.374-.219.562-.044.119-.086.238-.125.358-.062.188-.12.376-.171.566-.033.121-.062.242-.091.364-.045.192-.09.384-.125.578-.021.115-.035.23-.051.346-.031.2-.063.406-.081.612-.028.054-.047.093-.047.093l.041.031c-.021.272-.041.544-.041.819V59.647c0,.337.018.672.05,1.005.011.115.032.229.047.344.028.216.055.432.1.646.027.141.063.28.095.42.043.185.085.37.138.553.044.154.1.306.146.459s.11.33.172.494.132.325.2.488.131.3.2.445c.082.171.169.342.259.512.071.132.145.265.221.4q.154.271.324.539c.073.114.148.226.224.339.13.193.263.385.4.575.065.088.134.175.2.263.162.21.327.42.5.627.041.049.086.1.128.145a25.532,25.532,0,0,0,6.466,5.175L43.038,91.248l-14.6,78.5q-1.452.465-2.844.97l-.441.161q-2.044.753-3.955,1.592c-.163.071-.326.143-.487.216q-1.267.567-2.473,1.169l-.011,0c-.365.183-.722.37-1.077.557l-.565.3q-.828.45-1.621.917c-.206.121-.414.241-.616.364-.3.181-.59.364-.88.548-.226.144-.446.289-.667.435q-.606.4-1.185.81c-.254.179-.506.359-.752.541s-.461.345-.687.52c-.273.212-.539.426-.8.641s-.535.444-.794.669-.518.454-.768.683c-.172.158-.342.316-.508.476-.346.332-.684.667-1.007,1.006-.119.126-.231.253-.347.38q-.372.405-.721.817c-.118.139-.237.277-.351.417q-.448.552-.858,1.114c-.084.116-.162.234-.243.351q-.329.469-.627.948c-.072.115-.147.23-.217.347q-.36.6-.671,1.21c-.057.111-.109.222-.164.334q-.261.536-.485,1.077c-.037.088-.076.175-.111.263-.169.427-.318.858-.451,1.292-.034.109-.064.218-.095.328-.116.4-.219.81-.3,1.22-.011.051-.025.1-.035.153-.088.45-.152.9-.2,1.36-.012.109-.022.22-.031.33-.041.464-.07.929-.07,1.4,0,.431.026.858.063,1.284h0L.263,218.419a17.938,17.938,0,0,0,3.6,10.51,26.48,26.48,0,0,0,2.257,2.745,32.817,32.817,0,0,0,2.749,2.6,51.31,51.31,0,0,0,13.06,7.759,85.507,85.507,0,0,0,17.428,5.16q4.111.78,8.489,1.251a115.4,115.4,0,0,0,12.025.647h0a103.379,103.379,0,0,0,33.375-5.143,58.353,58.353,0,0,0,16.136-8.214,32.759,32.759,0,0,0,5.514-5.176,22.727,22.727,0,0,0,2.82-4.249,17.216,17.216,0,0,0,1.814-6.057q.079-.781.081-1.572l.118-21.184Z"/>
</svg>
