<svg xmlns="http://www.w3.org/2000/svg" width="120" height="248.854" viewBox="0 0 120 248.854">
  <title>Rook</title>
  <path d="M119.949,110.294c-.008.321-.027.64-.054.959q0-.523,0-1.421c0-.464-.028-.926-.069-1.385-.011-.125-.022-.249-.036-.373-.049-.435-.109-.868-.193-1.3-.024-.123-.057-.245-.084-.369-.067-.306-.143-.612-.227-.916-.054-.194-.109-.388-.17-.581-.09-.283-.19-.564-.3-.844-.115-.311-.242-.619-.376-.926q-.108-.249-.223-.5c-.117-.25-.236-.5-.365-.746l.051-.007V87.38c-2.766-5.272-8.2-9.986-15.52-13.733l-16.637,8.5a100.8,100.8,0,0,0-10.233-1.928V65.708a115.849,115.849,0,0,0-31.043,0V80.221h0a101.316,101.316,0,0,0-10.231,1.928l-16.637-8.5C10.282,77.394,4.852,82.108,2.086,87.38v14.51l.054.007h0c-.126.24-.241.482-.355.724-.073.155-.142.31-.21.465-.181.413-.344.829-.493,1.247-.046.132-.1.264-.138.4-.089.271-.171.542-.246.815-.015.055-.027.11-.041.165a16.353,16.353,0,0,0-.339,1.617c-.013.088-.027.176-.039.264a15.931,15.931,0,0,0-.154,1.788h0c0,.152-.023.3-.023.453l-.056.45-.013-.024L.046,218.065C.009,235,26.8,248.781,59.875,248.854s59.926-13.593,59.964-30.525c0,0,.128-84.717.128-84.741v-23.33Z"/>
</svg>
